<?xml version="1.0" encoding="UTF-8" standalone="no"?>
<!-- Created with Inkscape (http://www.inkscape.org/) -->

<svg
   xmlns:dc="http://purl.org/dc/elements/1.1/"
   xmlns:cc="http://creativecommons.org/ns#"
   xmlns:rdf="http://www.w3.org/1999/02/22-rdf-syntax-ns#"
   xmlns:svg="http://www.w3.org/2000/svg"
   xmlns="http://www.w3.org/2000/svg"
   xmlns:sodipodi="http://sodipodi.sourceforge.net/DTD/sodipodi-0.dtd"
   xmlns:inkscape="http://www.inkscape.org/namespaces/inkscape"
   width="64"
   height="64.000008"
   id="svg2"
   version="1.1"
   inkscape:version="0.48.3.1 r9886"
   inkscape:export-filename="/home/daniel/Projects/test1/data/media/logo.png"
   inkscape:export-xdpi="90"
   inkscape:export-ydpi="90"
   sodipodi:docname="seagull.svg">
  <defs
     id="defs4">
    <clipPath
       clipPathUnits="userSpaceOnUse"
       id="clipPath3892">
      <path
         d="m -0.40136886,22.110542 c 0.57135466,-0.288231 0.98788607,-1.25212 1.27391294,-2.78553 -0.0755418,1.253742 -0.2448797,2.643046 0.51047442,2.6959 l -0.3053931,2.347191 1.5592466,0 L 3.3096371,19.537552 0.3668708,16.131191 1.4030322,8.6914 2.5694137,7.1503004 l 3.3766804,0 L 6.6933334,8.6914 6.1336571,12.864374 c -1.0668384,0.84468 -1.1650481,2.20873 -1.4061883,3.396619 0.3242438,-2.532936 -0.053332,-3.084358 -0.4708261,-3.523082 l 0.3711395,-2.664835 -1.5592466,0 -0.6712842,4.819921 2.9564735,3.416991 -1.0361613,7.43979 -1.1765067,1.541101 -3.37668025,0 -0.71905157,-1.207516 0.36220181,-2.590067 z"
         id="path3894"
         inkscape:connector-curvature="0"
         sodipodi:nodetypes="ccccccccccccccccccccccc"
         style="fill:none;stroke:#000000;stroke-width:0.21176441;stroke-miterlimit:4;stroke-dasharray:none" />
    </clipPath>
    <clipPath
       clipPathUnits="userSpaceOnUse"
       id="clipPath3896">
      <path
         d="m 8.4310264,43.924039 c 4.1172386,-0.702845 7.1188056,-3.053264 9.1799436,-6.792447 -0.544362,3.057219 -1.764628,6.445003 3.678529,6.573886 l -2.200693,5.723568 11.236086,0 4.848012,-11.779181 -21.205866,-8.306328 7.466682,-18.14175 8.405061,-3.7579335 24.332694,0 5.384681,3.7579335 -4.033083,10.175696 c -7.687743,2.059732 -8.395452,5.385934 -10.133133,8.282573 2.336533,-6.176503 -0.384315,-7.521132 -3.392819,-8.59095 l 2.674468,-6.498135 -11.236086,0 -4.837341,11.75326 21.304642,8.332249 -7.466681,18.141747 -8.478024,3.757937 -24.332694,0 -5.1815571,-2.944498 2.6100622,-6.315815 z"
         id="path3898"
         inkscape:connector-curvature="0"
         sodipodi:nodetypes="ccccccccccccccccccccccc"
         style="fill:none;stroke:#000000;stroke-width:0.88769203;stroke-miterlimit:4;stroke-dasharray:none" />
    </clipPath>
    <clipPath
       clipPathUnits="userSpaceOnUse"
       id="clipPath3900">
      <path
         d="m 8.4310264,43.924039 c 4.1172386,-0.702845 7.1188056,-3.053264 9.1799436,-6.792447 -0.544362,3.057219 -1.764628,6.445003 3.678529,6.573886 l -2.200693,5.723568 11.236086,0 4.848012,-11.779181 -21.205866,-8.306328 7.466682,-18.14175 8.405061,-3.7579335 24.332694,0 5.384681,3.7579335 -4.033083,10.175696 c -7.687743,2.059732 -8.395452,5.385934 -10.133133,8.282573 2.336533,-6.176503 -0.384315,-7.521132 -3.392819,-8.59095 l 2.674468,-6.498135 -11.236086,0 -4.837341,11.75326 21.304642,8.332249 -7.466681,18.141747 -8.478024,3.757937 -24.332694,0 -5.1815571,-2.944498 2.6100622,-6.315815 z"
         id="path3902"
         inkscape:connector-curvature="0"
         sodipodi:nodetypes="ccccccccccccccccccccccc"
         style="fill:none;stroke:#000000;stroke-width:0.88769203;stroke-miterlimit:4;stroke-dasharray:none" />
    </clipPath>
    <clipPath
       clipPathUnits="userSpaceOnUse"
       id="clipPath3012">
      <path
         d="m -0.40136886,22.110541 c 0.5713546,-0.288231 0.9878861,-1.25212 1.2739129,-2.78553 -0.075542,1.253742 -0.2448797,2.643046 0.51047446,2.6959 l -0.305393,2.347191 1.5592464,0 L 3.3096371,19.537551 0.36687074,16.13119 1.4030322,8.691399 2.5694137,7.1502994 l 3.3766804,0 0.7472393,1.5410996 -0.5596764,4.172974 c -1.0668383,0.84468 -1.165048,2.20873 -1.4061882,3.396619 0.3242438,-2.532936 -0.053332,-3.084358 -0.470826,-3.523082 l 0.3711394,-2.664835 -1.5592466,0 -0.6712842,4.819921 2.9564735,3.416991 -1.0361613,7.43979 -1.1765067,1.541101 -3.37668026,0 -0.7190516,-1.207516 0.3622018,-2.590067 z"
         id="path3014"
         inkscape:connector-curvature="0"
         sodipodi:nodetypes="ccccccccccccccccccccccc"
         style="font-size:23.93294144px;font-style:normal;font-variant:normal;font-weight:normal;font-stretch:normal;line-height:125%;letter-spacing:0px;word-spacing:0px;fill:none;stroke:#000000;stroke-width:0.21176441;stroke-miterlimit:4;stroke-dasharray:none;font-family:Shadow of Xizor;-inkscape-font-specification:Shadow of Xizor"
         clip-path="none" />
    </clipPath>
  </defs>
  <sodipodi:namedview
     id="base"
     pagecolor="#ffffff"
     bordercolor="#666666"
     borderopacity="1.0"
     inkscape:pageopacity="0.0"
     inkscape:pageshadow="2"
     inkscape:zoom="5.2314818"
     inkscape:cx="37.087036"
     inkscape:cy="35.557327"
     inkscape:document-units="px"
     inkscape:current-layer="text3039"
     showgrid="false"
     fit-margin-top="0"
     fit-margin-left="0"
     fit-margin-right="0"
     fit-margin-bottom="0"
     showborder="true"
     inkscape:window-width="1301"
     inkscape:window-height="744"
     inkscape:window-x="65"
     inkscape:window-y="24"
     inkscape:window-maximized="1"
     showguides="true"
     inkscape:guide-bbox="true" />
  <metadata
     id="metadata7">
    <rdf:RDF>
      <cc:Work
         rdf:about="">
        <dc:format>image/svg+xml</dc:format>
        <dc:type
           rdf:resource="http://purl.org/dc/dcmitype/StillImage" />
        <dc:title />
      </cc:Work>
    </rdf:RDF>
  </metadata>
  <g
     inkscape:label="Layer 1"
     inkscape:groupmode="layer"
     id="layer1"
     transform="translate(-355.97817,-385.42867)">
    <g
       transform="matrix(5.2261563,0,-1.2099797,3.3622984,367.3015,375.43669)"
       style="font-size:18px;font-style:normal;font-variant:normal;font-weight:normal;font-stretch:normal;line-height:125%;letter-spacing:0px;word-spacing:0px;fill:#000000;fill-opacity:1;stroke:none;font-family:EPISODE I;-inkscape-font-specification:EPISODE I"
       id="flowRoot2984">
      <g
         transform="matrix(1.3788526,0,0.16791049,0.7252407,0,0)"
         style="font-size:23.93294144000000045px;fill:#ffffff;font-family:Shadow of Xizor;-inkscape-font-specification:Shadow of Xizor;stroke:#000000"
         id="text3039">
        <rect
           style="fill:#ffffff;fill-opacity:1;fill-rule:nonzero;stroke:#ffffff;stroke-width:1;stroke-linecap:round;stroke-linejoin:round;stroke-miterlimit:4;stroke-opacity:1;stroke-dasharray:none"
           id="rect3838"
           width="66.902649"
           height="20.453096"
           x="-1.338053"
           y="-0.99114007"
           transform="matrix(0.13877133,0,0,0.41009226,-1.5713536,4.0976337)"
           clip-path="url(#clipPath3900)" />
        <rect
           style="fill:#c8b7b7;fill-opacity:1;fill-rule:nonzero;stroke:#c8b7b7;stroke-width:0.27722538;stroke-linecap:round;stroke-linejoin:round;stroke-miterlimit:4;stroke-opacity:1;stroke-dasharray:none"
           id="rect3832"
           width="7.7456503"
           height="15.985214"
           x="-1.376568"
           y="13.585577"
           clip-path="url(#clipPath3012)" />
        <rect
           style="fill:#ff6600;fill-opacity:1;fill-rule:nonzero;stroke:#ff6600;stroke-width:1;stroke-linecap:round;stroke-linejoin:round;stroke-miterlimit:4;stroke-opacity:1;stroke-dasharray:none"
           id="rect3836"
           width="18.541592"
           height="9.5575218"
           x="40.906193"
           y="20.226559"
           transform="matrix(0.13877133,0,0,0.41009226,-1.5713536,4.0976337)"
           clip-path="url(#clipPath3896)" />
        <path
           style="fill:none;stroke:#000000;stroke-width:0.21176441;stroke-miterlimit:4;stroke-dasharray:none"
           sodipodi:nodetypes="ccccccccccccccccccccccc"
           inkscape:connector-curvature="0"
           id="path3890"
           d="m -0.40136885,22.110542 c 0.57135467,-0.288231 0.98788612,-1.25212 1.27391298,-2.78553 -0.0755418,1.253742 -0.24487978,2.643046 0.51047437,2.6959 l -0.3053931,2.347191 1.5592466,0 0.6727651,-4.830551 -2.94276626,-3.406361 1.03616136,-7.4397912 1.1663815,-1.5410994 3.3766803,0 0.7472394,1.5410994 -0.5596763,4.1729742 c -1.0668383,0.84468 -1.1650481,2.20873 -1.4061884,3.396619 0.3242438,-2.532936 -0.053332,-3.084358 -0.470826,-3.523082 l 0.3711395,-2.664835 -1.5592466,0 -0.6712842,4.819921 2.9564735,3.416991 -1.0361613,7.43979 -1.1765066,1.541101 -3.37668035,0 -0.71905157,-1.207516 0.36220181,-2.590067 z" />
      </g>
    </g>
  </g>
</svg>
